<svg width="109" height="63" viewBox="0 0 109 63" fill="none" xmlns="http://www.w3.org/2000/svg">
<path d="M35.936 0.687996C41.184 0.687996 45.536 4.912 45.536 10.288C45.536 15.536 41.184 19.888 35.936 19.888C30.56 19.888 26.336 15.536 26.336 10.288C26.336 4.912 30.56 0.687996 35.936 0.687996ZM19.296 62H0.48V0.559998H19.296V62ZM99.257 0.687996C104.505 0.687996 108.857 4.912 108.857 10.288C108.857 15.536 104.505 19.888 99.257 19.888C93.881 19.888 89.657 15.536 89.657 10.288C89.657 4.912 93.881 0.687996 99.257 0.687996ZM52.665 0.687996H73.913L94.265 41.136L83.641 62.128L52.665 0.687996Z" fill="white"/>
</svg>
